<svg width="119" height="108" viewBox="0 0 119 108" fill="none" xmlns="http://www.w3.org/2000/svg">
<g opacity="0.3">
<path fill-rule="evenodd" clip-rule="evenodd" d="M107.985 90.719C103.224 97.8717 98.5006 109.423 88.5047 107.749C74.3989 105.387 67.5019 80.7381 53.7926 81.645C39.9038 82.5638 48.071 93.98 33.9801 89.7022C27.8792 87.8501 26.1412 84.5484 26.0945 81.4494C26.0188 76.4268 27.4517 71.1286 23.3912 68.1716C21.5694 66.8449 19.649 65.5411 18.2353 63.9583C14.1208 59.3514 9.57752 55.033 6.95898 49.7424C3.59145 42.9387 -0.131116 35.6465 0.87202 28.8774C1.91722 21.8243 5.87544 14.9212 12.5771 11.8312C19.2928 8.73477 28.9104 14.0714 36.4494 12.4734C45.7713 10.4975 51.4339 -1.7509 61.3 1.50386C71.0496 4.72021 75.1629 16.9916 77.4597 26.0024C79.4819 33.9355 66.9474 41.8536 73.2206 48.2698C84.0854 59.3823 106.673 53.9522 116.405 65.835C122.992 73.8786 112.871 83.3781 107.985 90.719Z" fill="#D9D9D9"/>
<path fill-rule="evenodd" clip-rule="evenodd" d="M107.985 90.719C103.224 97.8717 98.5006 109.423 88.5047 107.749C74.3989 105.387 67.5019 80.7381 53.7926 81.645C39.9038 82.5638 48.071 93.98 33.9801 89.7022C27.8792 87.8501 26.1412 84.5484 26.0945 81.4494C26.0188 76.4268 27.4517 71.1286 23.3912 68.1716C21.5694 66.8449 19.649 65.5411 18.2353 63.9583C14.1208 59.3514 9.57752 55.033 6.95898 49.7424C3.59145 42.9387 -0.131116 35.6465 0.87202 28.8774C1.91722 21.8243 5.87544 14.9212 12.5771 11.8312C19.2928 8.73477 28.9104 14.0714 36.4494 12.4734C45.7713 10.4975 51.4339 -1.7509 61.3 1.50386C71.0496 4.72021 75.1629 16.9916 77.4597 26.0024C79.4819 33.9355 66.9474 41.8536 73.2206 48.2698C84.0854 59.3823 106.673 53.9522 116.405 65.835C122.992 73.8786 112.871 83.3781 107.985 90.719Z" fill="url(#paint0_radial_4_245)"/>
</g>
<defs>
<radialGradient id="paint0_radial_4_245" cx="0" cy="0" r="1" gradientUnits="userSpaceOnUse" gradientTransform="translate(53.8163 60.3456) rotate(-150) scale(63.3931 55.0204)">
<stop stop-color="#EF0C0C"/>
<stop offset="0.25" stop-color="#FF3C00"/>
<stop offset="0.640625" stop-color="#FFBB7D"/>
<stop offset="0.921875" stop-color="#B0F6C2"/>
</radialGradient>
</defs>
</svg>
