<svg width="20" height="20" viewBox="0 0 20 20" fill="none" xmlns="http://www.w3.org/2000/svg">
<path d="M5.47223 9.74391C5.65372 9.70632 5.84326 9.73232 6.0054 9.82213C6.56264 10.1308 6.98303 10.4205 7.43535 10.8463C7.54508 10.9496 7.72229 10.9336 7.80722 10.8091C9.31996 8.59187 11.1259 6.16115 13.2227 4.41093C13.2818 4.36166 13.3492 4.3238 13.4217 4.29819C13.4923 4.27324 13.5666 4.2605 13.6415 4.2605H14.047C14.7539 4.2605 15.1207 5.12173 14.6517 5.6507C12.2888 8.31549 10.3002 11.2847 8.4096 14.3414C8.10038 14.8414 7.3762 14.85 7.04931 14.3615C6.27086 13.198 5.5621 12.2556 4.6086 11.3669C4.09937 10.8922 4.29774 9.98717 4.97941 9.84598L5.47223 9.74391Z" fill="#EBB7AD"/>
</svg>
