<svg width="20" height="20" viewBox="0 0 20 20" fill="none" xmlns="http://www.w3.org/2000/svg">
<g clip-path="url(#clip0_4_232)">
<rect width="20" height="20" fill="white"/>
<path d="M19 10C19 11.1819 18.7672 12.3522 18.3149 13.4442C17.8626 14.5361 17.1997 15.5282 16.364 16.364C15.5282 17.1997 14.5361 17.8626 13.4442 18.3149C12.3522 18.7672 11.1819 19 10 19C8.8181 19 7.64778 18.7672 6.55585 18.3149C5.46392 17.8626 4.47177 17.1997 3.63604 16.364C2.80031 15.5282 2.13738 14.5361 1.68508 13.4442C1.23279 12.3522 1 11.1819 1 10C1 7.61305 1.94821 5.32387 3.63604 3.63604C5.32387 1.94821 7.61305 1 10 1C12.3869 1 14.6761 1.94821 16.364 3.63604C18.0518 5.32387 19 7.61305 19 10Z" fill="#B0F6C2" stroke="#091226" stroke-width="1.5" stroke-linecap="round" stroke-linejoin="round"/>
<path d="M13.91 9.67212C13.9686 9.70457 14.0174 9.7521 14.0513 9.80977C14.0853 9.86745 14.1032 9.93318 14.1032 10.0001C14.1032 10.0671 14.0853 10.1328 14.0513 10.1905C14.0174 10.2481 13.9686 10.2957 13.91 10.3281L8.307 13.4411C8.24991 13.4728 8.18552 13.489 8.12023 13.4882C8.05493 13.4874 7.99099 13.4695 7.93472 13.4364C7.87845 13.4032 7.8318 13.356 7.79941 13.2993C7.76701 13.2426 7.74998 13.1784 7.75 13.1131V6.88712C7.75 6.60112 8.057 6.42112 8.307 6.56012L13.91 9.67212Z" stroke="#091226" stroke-width="1.5" stroke-linecap="round" stroke-linejoin="round"/>
</g>
<defs>
<clipPath id="clip0_4_232">
<rect width="20" height="20" fill="white"/>
</clipPath>
</defs>
</svg>
