<svg width="21" height="21" viewBox="0 0 21 21" fill="none" xmlns="http://www.w3.org/2000/svg">
<path fill-rule="evenodd" clip-rule="evenodd" d="M7.87453 3.9375C8.01712 3.93753 8.15582 3.984 8.26965 4.06989C8.38348 4.15577 8.46624 4.27639 8.5054 4.4135L9.21678 6.90375C9.36994 7.44005 9.65729 7.92846 10.0517 8.32285C10.4461 8.71723 10.9345 9.00458 11.4708 9.15775L13.961 9.86912C14.098 9.90838 14.2186 9.99117 14.3044 10.105C14.3901 10.2188 14.4366 10.3575 14.4366 10.5C14.4366 10.6425 14.3901 10.7812 14.3044 10.895C14.2186 11.0088 14.098 11.0916 13.961 11.1309L11.4708 11.8422C10.9345 11.9954 10.4461 12.2828 10.0517 12.6772C9.65729 13.0715 9.36994 13.5599 9.21678 14.0962L8.5054 16.5865C8.46615 16.7235 8.38336 16.844 8.26954 16.9298C8.15572 17.0156 8.01706 17.062 7.87453 17.062C7.73199 17.062 7.59334 17.0156 7.47952 16.9298C7.3657 16.844 7.2829 16.7235 7.24365 16.5865L6.53228 14.0962C6.37911 13.5599 6.09176 13.0715 5.69738 12.6772C5.30299 12.2828 4.81458 11.9954 4.27828 11.8422L1.78803 11.1309C1.65101 11.0916 1.53049 11.0088 1.4447 10.895C1.3589 10.7812 1.3125 10.6425 1.3125 10.5C1.3125 10.3575 1.3589 10.2188 1.4447 10.105C1.53049 9.99117 1.65101 9.90838 1.78803 9.86912L4.27828 9.15775C4.81458 9.00458 5.30299 8.71723 5.69738 8.32285C6.09176 7.92846 6.37911 7.44005 6.53228 6.90375L7.24365 4.4135C7.28282 4.27639 7.36557 4.15577 7.4794 4.06989C7.59323 3.984 7.73193 3.93753 7.87453 3.9375ZM15.7495 1.3125C15.8959 1.31242 16.0382 1.36129 16.1536 1.45135C16.269 1.54141 16.351 1.66748 16.3865 1.8095L16.6123 2.716C16.8188 3.5385 17.461 4.18075 18.2835 4.38725L19.19 4.613C19.3323 4.64825 19.4587 4.73012 19.5491 4.84557C19.6394 4.96103 19.6885 5.1034 19.6885 5.25C19.6885 5.3966 19.6394 5.53897 19.5491 5.65443C19.4587 5.76988 19.3323 5.85175 19.19 5.887L18.2835 6.11275C17.461 6.31925 16.8188 6.9615 16.6123 7.784L16.3865 8.6905C16.3513 8.8328 16.2694 8.9592 16.154 9.04954C16.0385 9.13988 15.8961 9.18897 15.7495 9.18897C15.6029 9.18897 15.4606 9.13988 15.3451 9.04954C15.2297 8.9592 15.1478 8.8328 15.1125 8.6905L14.8868 7.784C14.7858 7.38013 14.577 7.01129 14.2826 6.71692C13.9882 6.42254 13.6194 6.21371 13.2155 6.11275L12.309 5.887C12.1667 5.85175 12.0403 5.76988 11.95 5.65443C11.8596 5.53897 11.8106 5.3966 11.8106 5.25C11.8106 5.1034 11.8596 4.96103 11.95 4.84557C12.0403 4.73012 12.1667 4.64825 12.309 4.613L13.2155 4.38725C13.6194 4.28629 13.9882 4.07745 14.2826 3.78308C14.577 3.48871 14.7858 3.11987 14.8868 2.716L15.1125 1.8095C15.1481 1.66748 15.2301 1.54141 15.3455 1.45135C15.4609 1.36129 15.6031 1.31242 15.7495 1.3125ZM14.437 13.125C14.5749 13.1249 14.7092 13.1682 14.821 13.2488C14.9329 13.3294 15.0165 13.4431 15.06 13.5739L15.4048 14.609C15.536 15.0001 15.8423 15.3081 16.2343 15.4385L17.2694 15.7841C17.3997 15.8279 17.5131 15.9115 17.5933 16.0231C17.6736 16.1347 17.7168 16.2688 17.7168 16.4062C17.7168 16.5437 17.6736 16.6778 17.5933 16.7894C17.5131 16.901 17.3997 16.9846 17.2694 17.0284L16.2343 17.374C15.8432 17.5052 15.5352 17.8115 15.4048 18.2035L15.0592 19.2386C15.0154 19.369 14.9318 19.4823 14.8202 19.5625C14.7085 19.6428 14.5745 19.686 14.437 19.686C14.2995 19.686 14.1655 19.6428 14.0539 19.5625C13.9423 19.4823 13.8587 19.369 13.8149 19.2386L13.4693 18.2035C13.4048 18.0104 13.2963 17.8349 13.1524 17.6909C13.0084 17.547 12.8329 17.4385 12.6398 17.374L11.6047 17.0284C11.4743 16.9846 11.361 16.901 11.2807 16.7894C11.2005 16.6778 11.1573 16.5437 11.1573 16.4062C11.1573 16.2688 11.2005 16.1347 11.2807 16.0231C11.361 15.9115 11.4743 15.8279 11.6047 15.7841L12.6398 15.4385C13.0309 15.3072 13.3389 15.001 13.4693 14.609L13.8149 13.5739C13.8584 13.4433 13.9419 13.3296 14.0535 13.2491C14.1652 13.1685 14.2993 13.1251 14.437 13.125Z" fill="#77DB89"/>
</svg>
